<?xml version="1.0" standalone="no"?>
<!DOCTYPE svg PUBLIC "-//W3C//DTD SVG 20010904//EN"
 "http://www.w3.org/TR/2001/REC-SVG-20010904/DTD/svg10.dtd">
<svg version="1.0" xmlns="http://www.w3.org/2000/svg"
 width="700.000000pt" height="700.000000pt" viewBox="0 0 700.000000 700.000000"
 preserveAspectRatio="xMidYMid meet">
<metadata>
Created by potrace 1.14, written by Peter Selinger 2001-2017
</metadata>
<g transform="translate(0.000000,700.000000) scale(0.100000,-0.100000)"
fill="#000000" stroke="none">
<path d="M1433 5985 c-181 -39 -335 -179 -404 -365 l-24 -65 -2 -500 c-2 -530
0 -564 46 -668 44 -100 108 -175 205 -238 70 -46 153 -79 221 -87 28 -3 327
-6 665 -6 l615 1 78 26 c206 71 345 232 382 442 2 17 5 246 5 510 0 402 -2
490 -15 540 -53 206 -219 367 -422 410 -96 21 -1256 20 -1350 0z"/>
<path d="M4195 5981 c-105 -30 -176 -71 -251 -146 -74 -74 -133 -177 -149
-260 -5 -22 -10 -47 -12 -55 -2 -8 -4 -357 -4 -775 0 -838 -2 -812 64 -945 43
-88 150 -195 239 -238 127 -62 145 -63 848 -60 l625 3 65 24 c85 31 189 100
240 159 22 26 56 77 75 113 67 127 66 112 63 976 l-3 778 -23 64 c-49 135
-148 250 -271 315 -125 66 -126 66 -821 65 -560 -1 -631 -2 -685 -18z"/>
<path d="M1445 3489 c-216 -49 -380 -210 -431 -424 -21 -89 -20 -1541 1 -1632
49 -208 219 -375 430 -422 34 -7 256 -10 690 -8 l640 2 64 23 c183 66 320 214
365 395 15 61 16 148 16 830 0 840 2 814 -63 947 -43 88 -150 194 -238 237
-128 62 -131 63 -814 62 -341 -1 -638 -5 -660 -10z"/>
<path d="M4256 2938 c-225 -32 -410 -202 -462 -425 -24 -101 -24 -989 0 -1084
53 -208 210 -365 417 -414 54 -13 159 -14 704 -12 587 3 644 5 694 21 169 57
304 192 362 361 l24 70 0 520 c0 484 -1 524 -19 575 -38 110 -94 194 -173 260
-80 67 -173 111 -264 126 -57 9 -1219 11 -1283 2z"/>
</g>
</svg>
