<?xml version="1.0" standalone="no"?><!DOCTYPE svg PUBLIC "-//W3C//DTD SVG 1.1//EN" "http://www.w3.org/Graphics/SVG/1.1/DTD/svg11.dtd"><svg t="1712121626476" class="icon" viewBox="0 0 1024 1024" version="1.1" xmlns="http://www.w3.org/2000/svg" p-id="9438" width="64" height="64" xmlns:xlink="http://www.w3.org/1999/xlink"><path d="M633.898667 877.696a81.514667 81.514667 0 0 1-81.28-81.28v-121.898667a81.536 81.536 0 0 1 81.28-81.28h162.56a81.514667 81.514667 0 0 1 81.258666 81.28v121.941334a81.493333 81.493333 0 0 1-81.28 81.216h-162.538666z" fill="#FA7226" p-id="9439"></path><path d="M227.541333 877.696h162.538667a81.493333 81.493333 0 0 0 81.216-81.258667V593.28A81.514667 81.514667 0 0 0 390.016 512h-162.474667a81.514667 81.514667 0 0 0-81.28 81.28v203.157333a81.514667 81.514667 0 0 0 81.28 81.28zM633.92 512h162.56a81.536 81.536 0 0 0 81.258667-81.28v-203.157333a81.536 81.536 0 0 0-81.28-81.28h-162.538667a81.536 81.536 0 0 0-81.28 81.28v203.178666A81.536 81.536 0 0 0 633.941333 512z" fill="#1852DA" p-id="9440"></path><path d="M227.541333 430.72h162.538667a81.493333 81.493333 0 0 0 81.216-81.258667v-121.898666a81.514667 81.514667 0 0 0-81.28-81.28h-162.474667a81.493333 81.493333 0 0 0-81.28 81.237333v121.941333a81.514667 81.514667 0 0 0 81.28 81.28z" fill="#FA7226" p-id="9441"></path></svg>